<svg width="64" height="64" viewBox="0 0 64 64" fill="none" xmlns="http://www.w3.org/2000/svg">
<circle cx="32" cy="32" r="31.5" stroke="#E2E2E2"/>
<path d="M31.9899 40.4862C28.463 40.4862 24.9362 40.4862 21.4093 40.4862C20.68 40.4862 20.1249 40.1923 19.8201 39.5066C19.733 39.2997 19.6895 39.0603 19.6895 38.8317C19.6895 34.0965 19.6895 29.3505 19.6895 24.6154C19.6895 23.6357 20.3317 22.9826 21.3114 22.95C21.3549 22.95 21.3985 22.95 21.442 22.95C28.4848 22.95 35.5276 22.95 42.5596 22.95C42.995 22.95 43.3869 23.0479 43.7243 23.3309C44.0617 23.6248 44.2577 23.9841 44.2795 24.4412C44.2795 24.5174 44.2795 24.5828 44.2795 24.659C44.2795 29.3723 44.2795 34.0857 44.2795 38.7881C44.2795 39.7134 43.6808 40.3012 43.0603 40.4427C42.8752 40.4862 42.6902 40.4971 42.5051 40.4971C38.9892 40.4971 35.4841 40.4971 31.9681 40.4971L31.9899 40.4862ZM43.0821 23.8425C43.0821 23.8425 43.0821 23.7881 43.0712 23.7664C42.8861 23.7555 42.7011 23.7228 42.516 23.7228C35.7127 23.7228 28.9093 23.7228 22.106 23.7228C21.8448 23.7228 21.5835 23.7228 21.3223 23.7228C21.1807 23.7228 21.0501 23.7664 20.8542 23.799C24.5987 27.0973 28.2889 30.3629 31.9899 33.6285C35.6909 30.3629 39.381 27.1082 43.0712 23.8534L43.0821 23.8425ZM43.0712 39.6481V39.5719C40.3063 37.1227 37.5305 34.6735 34.7548 32.2243C33.9384 32.9427 33.1329 33.6502 32.3273 34.3687C32.077 34.5864 31.9355 34.5864 31.6851 34.3687C31.2388 33.9768 30.7925 33.5849 30.3571 33.1931C29.987 32.8665 29.6278 32.5508 29.2577 32.2243C26.471 34.6844 23.6953 37.1336 20.9195 39.5719V39.6372C21.1154 39.659 21.2896 39.6916 21.4746 39.6916C26.9826 39.6916 32.5015 39.6916 38.0095 39.6916C39.5334 39.6916 41.0574 39.6916 42.5813 39.6916C42.7446 39.6916 42.9188 39.659 43.0821 39.6372L43.0712 39.6481ZM43.5066 38.9188V24.5066C40.7635 26.9231 38.053 29.3179 35.3317 31.7127C38.0639 34.1183 40.7744 36.5131 43.5066 38.9188ZM28.659 31.7127C25.9268 29.307 23.2163 26.9122 20.4841 24.5066V38.9296C23.2163 36.5131 25.9268 34.1292 28.659 31.7235V31.7127Z" fill="#383838"/>
</svg>
