<svg width="64" height="64" viewBox="0 0 64 64" fill="none" xmlns="http://www.w3.org/2000/svg">
<circle cx="32" cy="32" r="31.5" stroke="#E2E2E2"/>
<g clip-path="url(#clip0_2346_4089)">
<path d="M28.1581 27.4233C28.2398 26.1866 28.3215 24.9383 28.3915 23.7016C28.4148 23.34 28.4381 22.99 28.4498 22.6283C28.4615 22.3716 28.6015 22.2433 28.8581 22.2433C29.9898 22.2433 31.1215 22.2433 32.2531 22.2433C32.4865 22.2433 32.6265 22.36 32.6498 22.6166C32.7431 24.0866 32.8365 25.5566 32.9181 27.0266C32.9648 27.6916 32.9998 28.345 33.0465 29.0566C34.2015 28.345 35.4265 27.925 36.7681 27.8433V27.1666H35.0765V26.4783H39.1948V27.1433H37.5148V27.82C40.9448 28.0766 43.4765 30.4333 44.2231 33.3733C44.3865 33.3733 44.5615 33.3733 44.7365 33.3733C44.9815 33.3733 45.1215 33.5133 45.1215 33.7466C45.1215 34.645 45.1215 35.555 45.1215 36.4533C45.1215 36.71 44.9698 36.8383 44.7131 36.8383C44.5615 36.8383 44.3981 36.8383 44.2348 36.8383C44.1181 37.1766 44.0248 37.4916 43.8965 37.8066C43.5698 38.6233 43.0915 39.3583 42.5081 40.0116C42.4265 40.105 42.3681 40.2683 42.3565 40.3966C42.3448 41.19 42.3565 41.9833 42.3565 42.7766C42.3565 42.8583 42.3565 42.94 42.3681 43.045H46.1481V43.7333H19.8281V43.0916H22.2548C22.3131 42.2633 22.3715 41.4583 22.4181 40.665C22.5231 39.09 22.6281 37.5266 22.7331 35.9516C22.8148 34.7383 22.8965 33.525 22.9781 32.3116C23.0831 30.7483 23.1881 29.185 23.2931 27.6216C23.3748 26.3966 23.4565 25.1833 23.5381 23.9583C23.5615 23.515 23.5965 23.0716 23.6315 22.64C23.6431 22.3716 23.7831 22.2433 24.0515 22.2433C25.1715 22.2433 26.2798 22.2433 27.3998 22.2433C27.6915 22.2433 27.8081 22.3483 27.8315 22.6633C27.9015 23.6433 27.9481 24.635 28.0181 25.615C28.0531 26.21 28.0998 26.805 28.1348 27.4C28.1348 27.4 28.1581 27.4 28.1698 27.4L28.1581 27.4233ZM27.1081 43.0566C27.2131 41.5516 27.3065 40.0933 27.3998 38.6233C27.4815 37.34 27.5748 36.0566 27.6565 34.7616C27.6915 34.1666 27.7848 33.56 27.7615 32.9766C27.6448 30.8533 27.4815 28.73 27.3415 26.6066C27.3181 26.3266 27.2948 26.0466 27.2715 25.7666H24.0981C23.7131 31.5416 23.3281 37.2933 22.9431 43.0566H27.1081ZM30.0831 36.815C29.9548 36.815 29.8381 36.815 29.7331 36.815C29.2665 36.815 29.1848 36.7333 29.1848 36.2666C29.1848 35.5316 29.1848 34.7966 29.1848 34.0616C29.1848 33.385 29.1965 33.3733 29.8848 33.3616C30.0481 33.3616 30.1065 33.3033 30.1531 33.1633C30.5265 31.81 31.2381 30.655 32.2765 29.6983C32.3581 29.6283 32.3931 29.4766 32.3931 29.3716C32.3581 28.695 32.3115 28.0066 32.2648 27.33C32.2298 26.805 32.1831 26.2916 32.1481 25.7666H28.9748C28.5898 31.5416 28.2048 37.2933 27.8198 43.045H31.9498C31.9498 42.1 31.9498 41.1783 31.9498 40.2683C31.9498 40.1866 31.8915 40.0933 31.8331 40.035C31.0048 39.1133 30.4098 38.0516 30.1065 36.815H30.0831ZM30.8415 36.8266C31.0515 39.16 34.1548 41.6216 36.9081 41.6916C40.5481 41.785 42.9748 39.125 43.4531 36.8266H30.8298H30.8415ZM43.4648 33.3383C42.7765 30.7016 40.2098 28.3683 36.8381 28.5316C35.1348 28.6133 33.6648 29.2783 32.4631 30.4916C31.6698 31.285 31.1215 32.23 30.8181 33.3383H43.4765H43.4648ZM34.7265 34.0733H29.8965V36.1266H34.7265V34.0733ZM44.4331 34.0733H39.6031V36.1383H44.4331V34.0733ZM41.6565 40.8633C39.2065 42.6016 36.6515 42.8583 33.9098 41.645C33.9448 42.135 33.9798 42.59 34.0148 43.045H41.6565V40.8633ZM35.4148 36.1383H38.8681V34.085H35.4148V36.1383ZM32.0781 25.02C32.0315 24.3083 31.9848 23.6316 31.9498 22.9666H29.1381C29.0915 23.655 29.0565 24.3316 29.0098 25.02H32.0781ZM24.1681 25.02H27.2365C27.1898 24.3316 27.1431 23.655 27.1081 22.9666H24.2965C24.2498 23.655 24.2148 24.3316 24.1681 25.02ZM33.3031 43.1033C33.2681 42.6366 33.1981 42.1816 33.2098 41.7266C33.2331 41.2833 33.0231 41.0616 32.6615 40.8866V43.1033H33.3031Z" fill="#383838"/>
</g>
<defs>
<clipPath id="clip0_2346_4089">
<rect width="28" height="28" fill="white" transform="translate(19 19)"/>
</clipPath>
</defs>
</svg>
