<svg width="64" height="64" viewBox="0 0 64 64" fill="none" xmlns="http://www.w3.org/2000/svg">
<circle cx="32" cy="32" r="31.5" stroke="#E2E2E2"/>
<path d="M39.6473 42.9762H42.8434V43.8406H42.5818C41.5013 43.8406 40.4207 43.8406 39.3288 43.8406C39.1695 43.8406 39.0785 43.8975 38.9875 44.0226C38.7259 44.3866 38.4757 44.762 38.18 45.1032C37.8387 45.4899 37.4975 45.4899 37.1449 45.1032C36.8492 44.7733 36.5762 44.398 36.3259 44.0226C36.2236 43.8748 36.1098 43.8406 35.9392 43.8406C30.5478 43.8406 25.1563 43.8406 19.7649 43.8406C19.6625 43.8406 19.5602 43.8406 19.4464 43.8406V42.9876H22.2104V40.417C20.5838 40.1326 19.4237 39.2681 19.0824 37.5961C18.7753 36.1516 19.344 34.9914 20.4929 34.1042C19.7421 31.9317 21.6985 29.9981 23.6322 30.7488V20H39.6245V20.273C39.6245 22.2976 39.6245 24.3223 39.6245 26.3469C39.6245 26.5516 39.67 26.6426 39.8747 26.7109C42.3657 27.6891 43.9581 30.18 43.7875 32.8303C43.7193 33.8198 43.4008 34.7639 43.0596 35.6966C42.1837 38.1307 41.0577 40.4511 39.7837 42.7032C39.7382 42.7828 39.6928 42.8624 39.6359 42.9762H39.6473ZM31.9354 35.1393C31.7762 34.5705 31.6283 34.0246 31.4805 33.4672H26.4758V32.6028H31.3554C31.4236 32.0454 31.4805 31.5108 31.5487 30.9421H26.4758V30.0777C26.5895 30.0777 26.6805 30.0777 26.7715 30.0777C28.398 30.0777 30.0246 30.0777 31.6511 30.0777C31.8103 30.0777 31.8899 30.0208 31.9696 29.8729C32.1174 29.5772 32.2767 29.2928 32.4473 29.0199C32.5724 28.8151 32.7203 28.6331 32.8909 28.4056H26.4758V27.5412C26.5668 27.5412 26.635 27.5412 26.7032 27.5412C29.0009 27.5412 31.2985 27.5412 33.5961 27.5412C33.7326 27.5412 33.8918 27.4957 33.9942 27.4161C35.3136 26.5061 36.7582 26.1308 38.3506 26.3128C38.4984 26.3241 38.6349 26.3469 38.7828 26.3583V20.8758H24.508V42.9648H26.4644V37.653H32.9136C32.7089 37.1525 32.5155 36.6862 32.3449 36.2198C32.2767 36.0492 32.1971 35.9923 32.0037 35.9923C30.252 35.9923 28.5004 35.9923 26.7487 35.9923C26.6577 35.9923 26.5668 35.9923 26.4644 35.9923V35.1279H31.9241L31.9354 35.1393ZM37.6567 44.4662C37.816 44.2501 37.9525 44.0909 38.0662 43.9203C38.5781 43.0786 39.1013 42.2369 39.5676 41.3724C40.7506 39.1885 41.8084 36.9478 42.5591 34.5819C42.8548 33.6492 43.0596 32.7051 42.9117 31.7156C42.4226 28.5308 39.3174 26.4948 36.2122 27.3251C33.926 27.9279 32.2994 30.0094 32.2539 32.3753C32.2426 33.1487 32.4245 33.8881 32.6748 34.6047C33.7326 37.7781 35.2568 40.7241 37.0198 43.5563C37.2131 43.8634 37.4293 44.1364 37.6681 44.4776L37.6567 44.4662ZM21.653 34.434C21.4824 34.525 21.3232 34.6047 21.1753 34.6957C20.3677 35.1961 19.9014 35.9013 19.8673 36.8568C19.8104 38.7222 21.7099 39.9961 23.4957 39.4274C23.6322 39.3819 23.6435 39.3023 23.6435 39.1885C23.6435 36.7544 23.6435 34.3317 23.6435 31.8976C23.6435 31.8066 23.5639 31.6701 23.4843 31.6246C22.9725 31.3402 22.4606 31.3516 21.9601 31.6701C21.2208 32.1364 20.982 33.1601 21.4028 33.9677C21.4824 34.1156 21.562 34.2634 21.653 34.4227V34.434ZM31.2075 42.9762V38.5288H27.3175V42.9762H31.2075ZM35.6207 42.9648C35.6207 42.9648 35.6207 42.9079 35.6207 42.8852C34.8814 41.4634 34.1307 40.053 33.3914 38.6312C33.3686 38.5743 33.289 38.5174 33.2435 38.5174C32.8681 38.5174 32.4814 38.5174 32.0947 38.5174V42.9648H35.6321H35.6207ZM23.109 40.4056V42.9648H23.6322V40.3032C23.4502 40.3373 23.2796 40.3715 23.109 40.4056Z" fill="#383838"/>
<path d="M26.4746 23.3781V22.525C26.5656 22.525 26.6452 22.525 26.7135 22.525C30.0917 22.525 33.4585 22.525 36.8366 22.525C37.0641 22.525 37.121 22.5933 37.121 22.8094C37.1096 23.3895 37.121 23.3895 36.5523 23.3895C33.2992 23.3895 30.0575 23.3895 26.8045 23.3895H26.4746V23.3781Z" fill="#383838"/>
<path d="M26.4645 25.9033V25.0388C26.5555 25.0388 26.6351 25.0388 26.7147 25.0388C30.0929 25.0388 33.4597 25.0388 36.8379 25.0388C37.054 25.0388 37.1223 25.0957 37.1109 25.3118C37.0995 25.9033 37.1109 25.9033 36.508 25.9033C33.2664 25.9033 30.0247 25.9033 26.783 25.9033C26.6806 25.9033 26.5782 25.9033 26.4531 25.9033H26.4645Z" fill="#383838"/>
<path d="M37.5904 35.2643C36.0435 35.2643 34.8037 34.0131 34.8265 32.4548C34.8379 30.9079 36.089 29.6795 37.6473 29.6909C39.1601 29.6909 40.3999 30.9648 40.3999 32.5003C40.3999 34.0245 39.1374 35.2643 37.6018 35.2529L37.5904 35.2643ZM37.6018 34.4226C38.6596 34.4226 39.5355 33.5582 39.5355 32.5003C39.5355 31.4425 38.6596 30.5553 37.5904 30.5553C36.5326 30.5553 35.6568 31.4311 35.6568 32.489C35.6568 33.5695 36.5213 34.434 37.5904 34.434L37.6018 34.4226Z" fill="#383838"/>
</svg>
