<svg width="64" height="64" viewBox="0 0 64 64" fill="none" xmlns="http://www.w3.org/2000/svg">
<circle cx="32" cy="32" r="31.5" stroke="#E2E2E2"/>
<path d="M34.7685 47.0773C34.4416 47.0773 34.0914 47.019 33.7062 46.8906C32.5506 46.517 31.6284 45.7817 30.9397 45.1863C29.4106 43.8556 28.0098 42.1981 26.5157 39.9569C24.4379 36.8519 22.9321 33.8753 21.8932 30.852C21.4146 29.4395 21.1345 28.2372 21.0411 27.1049C20.971 26.2878 20.9477 25.319 21.3329 24.4085C21.5664 23.8599 21.9049 23.463 22.3951 23.1828C22.7687 22.9611 23.1539 22.7509 23.5274 22.5292C24.2161 22.1323 24.9282 21.7237 25.6285 21.3152C25.9904 21.1167 26.3873 21 26.7725 21C27.5663 21 28.29 21.4319 28.7102 22.1439C29.3172 23.1828 29.9359 24.2568 30.5545 25.3423C31.1965 26.4629 30.8347 27.7937 29.7257 28.4473C29.644 28.494 29.574 28.5407 29.4923 28.5874C29.2121 28.7508 28.9203 28.9259 28.6285 29.0777C28.3133 29.2411 28.1499 29.5096 28.1382 29.8948C28.1149 30.6418 28.3483 31.3306 28.5818 31.9726C29.3289 33.992 30.4028 35.7896 31.7568 37.3071C32.0954 37.6923 32.5039 38.0191 32.8658 38.2993C33.0759 38.4627 33.286 38.5444 33.5078 38.5444C33.7062 38.5444 33.9163 38.4744 34.1148 38.3343C34.3482 38.1709 34.6167 38.0191 34.8735 37.8791C34.9552 37.8324 35.0369 37.7857 35.107 37.7507C35.4572 37.5522 35.854 37.4472 36.2392 37.4472C37.033 37.4472 37.7567 37.8674 38.1653 38.5561C38.6555 39.3966 39.1458 40.2487 39.6244 41.0775C39.7645 41.3226 39.9046 41.5677 40.0446 41.8129C40.2431 42.163 40.3481 42.5482 40.3365 42.9335C40.3131 43.7856 39.9396 44.4276 39.2392 44.8478C38.1653 45.4898 37.103 46.0968 35.9241 46.7622C35.5505 46.9723 35.1653 47.0773 34.7451 47.0773H34.7685ZM26.7842 21.8054C26.5157 21.8054 26.2472 21.8871 25.9904 22.0272C25.4418 22.3424 24.8815 22.6692 24.3445 22.9727C23.8309 23.2646 23.329 23.5564 22.8154 23.8482C22.4418 24.0583 22.1734 24.3735 21.9983 24.782C21.8115 25.2256 21.7415 25.7159 21.7531 26.3229C21.7765 27.4668 21.9983 28.6458 22.5002 30.1633C23.6325 33.5834 25.3134 36.8752 27.648 40.202C29.0487 42.1864 30.3327 43.6572 31.6985 44.8245C32.3055 45.3381 33.0409 45.8984 33.963 46.1785C34.2198 46.2602 34.465 46.2953 34.6984 46.2953C35.0253 46.2953 35.3288 46.2136 35.6089 46.0501C35.8774 45.8984 36.1459 45.735 36.4143 45.5832C37.2081 45.128 38.0369 44.6494 38.8423 44.1825C39.566 43.7622 39.7995 42.8984 39.3909 42.1747C38.784 41.1125 38.1536 40.0269 37.5349 38.953C37.2665 38.4861 36.7996 38.2176 36.2743 38.2176C36.0058 38.2176 35.7373 38.2876 35.5039 38.4277C35.3755 38.4977 35.247 38.5794 35.1186 38.6495C34.8618 38.8012 34.605 38.953 34.3482 39.0931C34.1965 39.1748 34.0447 39.2331 33.893 39.2682C33.8113 39.2915 33.7179 39.2915 33.6245 39.2915C33.356 39.2915 33.0759 39.2098 32.7257 39.023C32.2121 38.7545 31.7335 38.3693 31.2199 37.8207C29.9359 36.4083 28.9086 34.7624 28.0799 32.7663C27.7297 31.9142 27.3795 30.8987 27.4379 29.7897C27.4729 29.101 27.7413 28.6574 28.2666 28.3773C28.5585 28.2255 28.8386 28.0621 29.1071 27.8987C29.1888 27.852 29.2588 27.8053 29.3405 27.7586C30.0993 27.3151 30.3327 26.4629 29.8892 25.6925C29.2355 24.5602 28.6402 23.5214 28.0682 22.5408C27.788 22.0506 27.3211 21.7704 26.7958 21.7704L26.7842 21.8054Z" fill="#383838"/>
<path d="M41.2699 35.883C41.2699 35.883 41.1999 35.883 41.1765 35.8714C40.8497 35.7897 40.8497 35.5095 40.8964 35.2877C41.6434 32.0426 40.838 29.1944 38.5034 26.8248C37.5112 25.821 36.2622 25.0972 34.7797 24.677C34.4646 24.5836 34.3945 24.4669 34.3945 24.2918C34.3945 24.1751 34.4296 24.07 34.4996 23.9883C34.5696 23.9183 34.663 23.8716 34.7681 23.8716C34.8031 23.8716 34.8498 23.8716 34.8848 23.8833C36.2389 24.2451 37.4645 24.8755 38.5034 25.7509C40.3944 27.3384 41.5267 29.4162 41.8886 31.8909C41.9119 32.0426 41.9353 32.2061 41.9353 32.3578C41.9353 32.5212 41.9353 32.6963 41.9353 32.8597C41.9353 32.9298 41.9353 33.0115 41.9353 33.0815C41.9586 33.8169 41.8769 34.5873 41.6551 35.4628C41.5967 35.7196 41.445 35.8714 41.2582 35.8714L41.2699 35.883Z" fill="#383838"/>
<path d="M38.9945 35.276C38.9945 35.276 38.9244 35.276 38.8894 35.2644C38.5626 35.171 38.5742 34.8908 38.6093 34.7274C39.0061 33.0582 38.7844 31.3539 37.9556 29.9298C37.1385 28.5057 35.7727 27.4552 34.1269 26.9649C33.8467 26.8832 33.7183 26.6848 33.7883 26.4513C33.835 26.2762 33.9751 26.1711 34.1619 26.1711C34.2202 26.1711 34.2786 26.1711 34.337 26.1945C35.7727 26.6497 36.9284 27.3618 37.7922 28.3306C38.6443 29.2995 39.2163 30.5368 39.4964 32.0076C39.5431 32.2527 39.5664 32.4979 39.5898 32.7897C39.6015 32.9414 39.6131 33.0815 39.6365 33.2566C39.6131 33.385 39.5898 33.5251 39.5664 33.6768C39.5081 34.0621 39.438 34.5056 39.3563 34.9375C39.3213 35.1476 39.1696 35.276 38.9828 35.276H38.9945Z" fill="#383838"/>
<path d="M36.7043 34.6574C36.7043 34.6574 36.646 34.6574 36.6109 34.6574C36.3658 34.599 36.2608 34.4122 36.3191 34.1438C36.8094 31.8792 35.7005 29.9532 33.4943 29.2411C33.2375 29.1594 33.1091 28.961 33.1791 28.7392C33.2258 28.5758 33.3775 28.4707 33.5526 28.4707C33.5993 28.4707 33.646 28.4707 33.6927 28.494C35.5721 29.066 36.7277 30.3384 37.1479 32.2761C37.1829 32.4628 37.2063 32.6613 37.2296 32.8831C37.2296 32.9881 37.253 33.0932 37.2646 33.2099C37.253 33.3033 37.2296 33.4084 37.2179 33.5134C37.1712 33.7936 37.1362 34.0737 37.0662 34.3655C37.0195 34.5523 36.8794 34.6807 36.7043 34.6807V34.6574Z" fill="#383838"/>
</svg>
