<svg width="16" height="8" viewBox="0 0 16 8" fill="none" xmlns="http://www.w3.org/2000/svg">
<path d="M0.300733 0.280753C0.205396 0.365038 0.129764 0.465128 0.0781625 0.575301C0.0265606 0.685473 8.58166e-08 0.803566 8.43944e-08 0.92283C8.29722e-08 1.04209 0.0265606 1.16019 0.0781625 1.27036C0.129764 1.38053 0.205396 1.48062 0.300733 1.56491L7.26567 7.73383C7.3609 7.81821 7.47399 7.88515 7.59847 7.93082C7.72295 7.97649 7.85638 8 7.99114 8C8.12589 8 8.25932 7.97649 8.3838 7.93082C8.50828 7.88515 8.62137 7.81821 8.7166 7.73383L15.6815 1.56491C15.7807 1.48139 15.8599 1.38116 15.9146 1.27012C15.9693 1.15907 15.9983 1.03946 15.9999 0.918339C16.0016 0.797215 15.9758 0.677027 15.9241 0.564861C15.8724 0.452696 15.7959 0.350822 15.699 0.265244C15.6022 0.179666 15.4869 0.112115 15.3601 0.0665757C15.2333 0.0210363 15.0974 -0.00157148 14.9606 8.55323e-05C14.8237 0.00174254 14.6886 0.02763 14.5633 0.0762226C14.4379 0.124816 14.3248 0.195131 14.2306 0.283023L7.99114 5.80987L1.75166 0.283022C1.65659 0.198494 1.54364 0.131379 1.41925 0.0855131C1.29486 0.0396476 1.16148 0.0159307 1.02673 0.0157199C0.891974 0.0155091 0.758496 0.0388093 0.633925 0.0842853C0.509354 0.129762 0.396132 0.196523 0.300733 0.280753Z" fill="#222222"/>
</svg>
