<svg width="36" height="36" viewBox="0 0 36 36" fill="none" xmlns="http://www.w3.org/2000/svg">
<g id="Icon">
<path fill-rule="evenodd" clip-rule="evenodd" d="M2.44274 2.44397C1.48813 3.39859 1.48813 4.94633 2.44274 5.90094L14.5424 18.0006L2.44333 30.0996C1.48871 31.0543 1.48871 32.602 2.44333 33.5566C3.39794 34.5112 4.94568 34.5112 5.90029 33.5566L17.9994 21.4575L30.0985 33.5567C31.0531 34.5113 32.6008 34.5113 33.5554 33.5567C34.5101 32.6021 34.5101 31.0543 33.5554 30.0997L21.4563 18.0006L33.556 5.90088C34.5106 4.94626 34.5106 3.39852 33.556 2.44391C32.6014 1.4893 31.0537 1.48929 30.0991 2.44391L17.9994 14.5436L5.89971 2.44397C4.9451 1.48936 3.39736 1.48936 2.44274 2.44397Z" fill="#555555" style="mix-blend-mode:multiply"/>
</g>
</svg>
