<svg width="26" height="26" viewBox="0 0 26 26" fill="none" xmlns="http://www.w3.org/2000/svg">
<path d="M18.9282 8.94421C18.7202 8.84021 18.4082 8.84021 18.2002 8.94421L11.7523 15.6002L8.73625 12.4802C8.52825 12.2722 8.21625 12.2722 8.00825 12.4802C7.80025 12.6882 7.80025 13.0002 7.90425 13.2082L11.3363 16.6402H11.4403C11.4403 16.6402 11.5443 16.6402 11.5443 16.7442H11.9603C11.9603 16.7442 12.0642 16.7442 12.0642 16.6402H12.1683L19.0322 9.67221C19.0322 9.46421 19.0322 9.15221 18.9282 8.94421Z" fill="#58B667"/>
<path d="M13 26C5.824 26 0 20.176 0 13C0 5.824 5.824 0 13 0C20.176 0 26 5.824 26 13C26 20.176 20.176 26 13 26ZM13 1.04C6.448 1.04 1.04 6.448 1.04 13C1.04 19.552 6.448 24.96 13 24.96C19.552 24.96 24.96 19.552 24.96 13C24.96 6.448 19.552 1.04 13 1.04Z" fill="#58B667"/>
</svg>
