<svg width="136" height="136" viewBox="0 0 136 136" fill="none" xmlns="http://www.w3.org/2000/svg">
<rect x="0.5" y="0.5" width="135" height="135" rx="67.5" fill="white" stroke="#E8E8E8"/>
<path d="M94.5226 54.03C92.5026 50.11 87.8326 47.9 81.3526 47.82C81.0026 47.82 80.6526 47.82 80.2926 47.82C77.2626 41.57 72.9026 38 68.2826 38C63.6626 38 59.3026 41.57 56.2726 47.82C49.3326 47.66 44.1626 49.9 42.0426 54.02C40.1426 57.73 40.8726 62.5 44.1026 67.5C40.8626 72.51 40.1326 77.27 42.0426 80.99C44.0626 84.91 48.7326 87.12 55.2126 87.2C55.3326 87.2 55.4526 87.2 55.5726 87.2C55.8026 87.2 56.0426 87.2 56.2726 87.19C59.3026 93.44 63.6626 97.01 68.2826 97.01C72.9026 97.01 77.2626 93.44 80.2926 87.19C80.5326 87.19 80.7626 87.19 80.9926 87.19C87.5826 87.19 92.4726 84.96 94.5226 80.98C96.4226 77.27 95.6926 72.5 92.4626 67.5C95.7026 62.49 96.4326 57.73 94.5226 54.01V54.03ZM68.2826 39.96C71.9626 39.96 75.5226 42.85 78.1726 47.95C72.7126 48.43 66.7026 50.25 60.9326 53.21C58.9726 54.22 57.1026 55.33 55.3426 56.51C55.9426 53.86 56.7526 51.42 57.7626 49.22C60.4726 43.33 64.3026 39.95 68.2826 39.95V39.96ZM43.7726 54.92C45.4526 51.64 49.6626 49.8 55.4126 49.77C54.3726 52.32 53.5726 55.14 53.0226 58.19C49.9626 60.52 47.3426 63.1 45.3126 65.78C42.8326 61.64 42.2826 57.82 43.7726 54.92ZM55.2326 85.27C49.5126 85.2 45.4426 83.37 43.7726 80.12C42.1326 76.93 42.9526 72.67 46.0626 68.09C46.0726 68.07 46.0926 68.05 46.1026 68.03C46.1526 67.95 46.2026 67.88 46.2526 67.8C48.2826 64.89 51.0626 62.1 54.3926 59.59C54.4526 59.56 54.5026 59.51 54.5526 59.47C56.7626 57.82 59.2026 56.3 61.8126 54.95C67.8426 51.85 74.1126 50.05 79.6626 49.8C79.6626 49.8 79.6726 49.8 79.6826 49.8C79.7026 49.8 79.7126 49.8 79.7326 49.8C80.1526 49.78 80.5726 49.77 80.9826 49.77C81.0926 49.77 81.2126 49.77 81.3226 49.77C87.0426 49.84 91.1126 51.67 92.7826 54.92C94.4226 58.11 93.6026 62.37 90.4926 66.95C90.4826 66.97 90.4626 66.99 90.4526 67.01C90.4026 67.09 90.3526 67.16 90.3026 67.24C86.9026 72.11 81.3726 76.68 74.7326 80.09C72.5126 81.23 70.2626 82.19 68.0226 82.97C68.0226 82.97 68.0226 82.97 68.0026 82.97C64.1626 84.3 60.3626 85.08 56.8626 85.24C56.8326 85.24 56.8126 85.24 56.7826 85.24C56.3726 85.26 55.9626 85.27 55.5626 85.27C55.4526 85.27 55.3326 85.27 55.2226 85.27H55.2326ZM68.2826 95.08C64.6026 95.08 61.0426 92.19 58.3926 87.09C61.5626 86.81 64.9126 86.08 68.2926 84.94C71.6526 86.07 75.0426 86.81 78.1826 87.09C75.5226 92.19 71.9726 95.08 68.2926 95.08H68.2826ZM92.7926 80.12C90.9726 83.66 86.2126 85.53 79.7326 85.24C79.7326 85.24 79.7326 85.24 79.7226 85.24C77.0726 85.12 74.2026 84.64 71.2826 83.82C72.7426 83.23 74.1926 82.56 75.6326 81.82C82.1426 78.47 87.6426 74.04 91.2526 69.26C93.7326 73.4 94.2826 77.22 92.7926 80.12ZM72.3226 52.88C72.5326 52.39 73.1026 52.16 73.6026 52.37C74.0226 52.55 74.4326 52.7 74.8326 52.85C75.5126 53.1 76.2126 53.37 76.9626 53.75C82.3826 56.53 85.6126 59.01 89.2926 63.21C89.6426 63.61 89.6026 64.23 89.2026 64.58C89.0226 64.74 88.7926 64.82 88.5626 64.82C88.2926 64.82 88.0226 64.71 87.8326 64.49C83.8426 59.94 80.6226 57.81 76.0726 55.48C75.4226 55.15 74.8026 54.91 74.1426 54.67C73.7226 54.51 73.2826 54.35 72.8226 54.15C72.3326 53.94 72.1026 53.37 72.3126 52.87L72.3226 52.88ZM62.7826 82.52C58.2626 80.82 54.2826 78.2 49.0426 73.47C48.0526 72.57 47.6726 72.18 46.8426 71.32C46.4726 70.93 46.4826 70.32 46.8726 69.94C47.2626 69.57 47.8726 69.58 48.2526 69.97C49.0726 70.82 49.4126 71.17 50.3526 72.02C55.4626 76.63 59.1426 79.06 63.4726 80.69C63.9726 80.88 64.2326 81.44 64.0426 81.94C63.8926 82.33 63.5226 82.57 63.1326 82.57C63.0226 82.57 62.9026 82.55 62.7926 82.51L62.7826 82.52ZM52.2026 68.8C52.2026 68.51 52.2026 68.18 52.2026 67.8C52.2026 67.38 52.2026 67.02 52.2026 66.7C52.2026 65.37 52.1826 64.57 52.3726 62.94C52.4326 62.41 52.9126 62.02 53.4526 62.08C53.9826 62.14 54.3726 62.62 54.3126 63.16C54.1426 64.67 54.1426 65.38 54.1526 66.68C54.1526 67.01 54.1526 67.37 54.1526 67.8C54.1526 68.19 54.1526 68.52 54.1526 68.82C54.1526 69.69 54.1426 70.26 54.2226 71.31C54.2726 71.85 53.8726 72.32 53.3326 72.36C53.3026 72.36 53.2726 72.36 53.2526 72.36C52.7526 72.36 52.3226 71.98 52.2826 71.47C52.1826 70.33 52.1926 69.69 52.2026 68.8ZM84.1926 62.48C84.3826 64.11 84.3726 65.02 84.3626 66.39C84.3626 66.73 84.3626 67.1 84.3626 67.51C84.3626 69.1 84.3226 69.75 84.2026 71.18C84.1626 71.69 83.7326 72.07 83.2326 72.07C83.2026 72.07 83.1726 72.07 83.1526 72.07C82.6126 72.02 82.2226 71.55 82.2626 71.02C82.3826 69.62 82.4226 69.04 82.4226 67.51C82.4226 67.09 82.4226 66.71 82.4226 66.37C82.4226 65.02 82.4426 64.2 82.2626 62.69C82.2026 62.16 82.5826 61.67 83.1226 61.61C83.6526 61.55 84.1426 61.93 84.2026 62.47L84.1926 62.48ZM59.5026 74.81C59.7226 74.88 64.9526 76.49 68.6426 76.49C72.3326 76.49 76.9226 74.87 77.1126 74.8C77.5626 74.64 77.8226 74.18 77.7426 73.71C77.2026 70.65 76.7726 69.79 76.3826 69.17C76.2526 68.97 75.9526 68.5 72.3126 66.64C72.4726 66.32 72.6226 65.98 72.7526 65.62L72.7726 65.56C72.7726 65.56 72.7726 65.56 72.7726 65.55L72.8126 65.44C73.0726 64.66 73.2126 63.86 73.2326 63.07C73.2326 63.07 73.2326 63.05 73.2326 63.04V63.01C73.2326 63.01 73.2326 63.01 73.2326 63C73.2326 62.95 73.2326 62.9 73.2326 62.86C73.2326 61.58 72.9226 60.45 72.3226 59.57C71.4726 58.33 70.0526 57.54 68.5426 57.47C68.5226 57.47 68.5126 57.47 68.4926 57.47H68.4826C68.4226 57.47 68.3626 57.47 68.3126 57.47H68.2926C68.2326 57.47 68.1726 57.47 68.1226 57.47C68.1226 57.47 68.1226 57.47 68.1126 57.47H68.0626C66.5526 57.55 65.1426 58.33 64.2826 59.58C63.6826 60.46 63.3626 61.59 63.3726 62.86V62.98C63.3726 62.98 63.3726 63 63.3726 63.02V63.08C63.4026 63.87 63.5426 64.66 63.8026 65.45L63.8426 65.56C63.8426 65.56 63.8426 65.56 63.8426 65.57L63.8626 65.64C63.9926 66 64.1326 66.34 64.2926 66.65C60.6326 68.52 60.3326 68.99 60.2026 69.19C59.8126 69.81 59.3826 70.67 58.8426 73.73C58.7526 74.21 59.0426 74.68 59.5126 74.83L59.5026 74.81ZM65.8726 60.67C66.3826 59.92 67.2326 59.45 68.1426 59.41C68.1626 59.41 68.1826 59.41 68.1826 59.41C68.2126 59.41 68.2426 59.41 68.2726 59.41H68.2926C68.2926 59.41 68.3526 59.41 68.3726 59.41C68.3926 59.41 68.4126 59.41 68.4326 59.41C69.3426 59.45 70.1926 59.93 70.7026 60.67C71.0826 61.22 71.2726 61.97 71.2726 62.85C71.2726 62.88 71.2726 62.92 71.2726 62.94C71.2726 62.97 71.2726 62.99 71.2726 63.02C71.2526 63.61 71.1426 64.23 70.9426 64.83L70.8926 64.98C70.7326 65.44 70.5326 65.86 70.3026 66.21C70.3026 66.21 70.3026 66.22 70.2926 66.23V66.25H70.2726L70.2426 66.29C70.2426 66.29 70.1926 66.36 70.1726 66.39C70.1726 66.39 70.1726 66.39 70.1726 66.4L70.1326 66.45C70.0826 66.51 70.0326 66.58 69.9826 66.64C69.9826 66.64 69.9826 66.64 69.9826 66.65C69.9526 66.69 69.9226 66.73 69.8826 66.77C69.8826 66.77 69.8726 66.78 69.8626 66.79H69.8526C69.8526 66.79 69.8026 66.86 69.7726 66.9L69.7526 66.92C69.7526 66.92 69.7326 66.94 69.7226 66.95C69.7126 66.96 69.7026 66.97 69.6826 66.99C69.1826 67.53 68.6726 67.85 68.3226 67.85H68.3026C67.9526 67.85 67.4426 67.53 66.9426 66.99C66.9326 66.98 66.9226 66.97 66.9126 66.96C66.9026 66.94 66.8826 66.93 66.8726 66.91C66.8726 66.91 66.8726 66.9 66.8626 66.89C66.8326 66.86 66.8126 66.83 66.7826 66.79L66.7626 66.76C66.7626 66.76 66.7026 66.68 66.6726 66.65C66.6726 66.65 66.6626 66.63 66.6526 66.63C66.6026 66.57 66.5526 66.5 66.5026 66.44C66.5026 66.44 66.4726 66.39 66.4726 66.38C66.4526 66.35 66.4326 66.32 66.4126 66.29C66.4026 66.27 66.3926 66.25 66.3726 66.23V66.21C66.3726 66.21 66.3526 66.2 66.3426 66.19C66.1126 65.84 65.9126 65.41 65.7526 64.96L65.7026 64.81C65.5026 64.21 65.3926 63.58 65.3726 62.99C65.3726 62.99 65.3726 62.98 65.3726 62.97V62.82C65.3726 61.95 65.5626 61.2 65.9326 60.65L65.8726 60.67ZM61.7926 70.28C62.1226 70 63.4726 69.24 64.8026 68.55C66.1926 70.14 68.1426 70.24 68.2326 70.24C68.2426 70.24 68.2626 70.24 68.2726 70.24H68.2826C68.2826 70.24 68.3226 70.24 68.3426 70.24C68.5726 70.22 70.4226 70.06 71.7526 68.55C73.0826 69.24 74.4426 70 74.7726 70.28C74.9526 70.58 75.2626 71.16 75.6626 73.22C74.2426 73.67 71.1426 74.54 68.6326 74.54C66.1226 74.54 62.5026 73.64 60.9026 73.19C61.3026 71.15 61.6026 70.58 61.7926 70.28Z" fill="#383838"/>
</svg>
