<svg width="136" height="136" viewBox="0 0 136 136" fill="none" xmlns="http://www.w3.org/2000/svg">
<rect x="0.5" y="0.5" width="135" height="135" rx="67.5" fill="white" stroke="#E8E8E8"/>
<path d="M78.8619 81.9867H56.5319C56.2219 81.9867 55.9319 81.8367 55.7519 81.5767C55.2919 80.8967 54.7419 80.3067 54.1419 79.8667C50.9019 77.4567 48.3619 74.2267 46.7819 70.5167C45.1419 66.6467 44.6219 62.3467 45.2719 58.0967C46.0219 53.2867 48.4119 48.7467 52.0119 45.3067C55.6019 41.8767 60.2419 39.6867 65.0819 39.1467C68.4019 38.7767 71.6619 39.1067 74.7819 40.1367C77.7619 41.1167 80.4719 42.6867 82.8219 44.7867C87.6319 49.0867 90.3919 55.2567 90.3919 61.6967C90.3919 65.3567 89.5419 68.8467 87.8819 72.0767C86.2919 75.1567 83.9719 77.8667 81.1719 79.9367C80.5819 80.3667 80.0519 80.9267 79.6419 81.5667C79.4719 81.8367 79.1719 81.9967 78.8519 81.9967L78.8619 81.9867ZM57.0119 80.1067H78.3619C78.8419 79.4467 79.4319 78.8667 80.0619 78.4067C82.6219 76.5167 84.7519 74.0267 86.2119 71.2067C87.7419 68.2467 88.5219 65.0467 88.5219 61.6867C88.5219 55.7767 85.9919 50.1167 81.5819 46.1767C79.4219 44.2467 76.9419 42.8067 74.2019 41.9067C71.3419 40.9667 68.3519 40.6667 65.3019 41.0067C60.8719 41.4967 56.6119 43.5067 53.3219 46.6567C50.0219 49.8067 47.8219 53.9667 47.1419 58.3767C46.5419 62.2867 47.0219 66.2367 48.5319 69.7867C49.9719 73.1867 52.3119 76.1567 55.2819 78.3667C55.9319 78.8467 56.5119 79.4367 57.0219 80.1167L57.0119 80.1067Z" fill="#383838"/>
<path d="M75.6102 92.2867H59.7902C58.1802 92.2867 56.8802 90.9767 56.8802 89.3767V85.3867C56.8802 84.0467 56.4802 82.6867 55.7602 81.5567C55.5802 81.2667 55.5602 80.9067 55.7302 80.6067C55.8902 80.3067 56.2102 80.1167 56.5502 80.1167H78.8602C79.2002 80.1167 79.5202 80.3067 79.6802 80.6067C79.8402 80.9067 79.8302 81.2767 79.6402 81.5667C78.9202 82.6567 78.5302 84.0167 78.5302 85.3867V89.3767C78.5302 90.9867 77.2202 92.2867 75.6202 92.2867H75.6102ZM58.0802 81.9867C58.5202 83.0567 58.7502 84.2267 58.7502 85.3767V89.3667C58.7502 89.9367 59.2202 90.4067 59.7902 90.4067H75.6102C76.1802 90.4067 76.6502 89.9367 76.6502 89.3667V85.3767C76.6502 84.1867 76.8702 83.0367 77.3102 81.9867H58.0802Z" fill="#383838"/>
<path d="M72.4105 96.2367H63.0005C61.8805 96.2367 60.8805 95.6167 60.3805 94.6267L58.9505 91.7567C58.8105 91.4667 58.8205 91.1267 58.9905 90.8467C59.1605 90.5667 59.4605 90.4067 59.7905 90.4067H75.6105C75.9305 90.4067 76.2405 90.5767 76.4105 90.8467C76.5805 91.1167 76.6005 91.4667 76.4505 91.7567L75.0305 94.6267C74.5305 95.6167 73.5305 96.2367 72.4105 96.2367ZM61.3005 92.2867L62.0505 93.7967C62.2205 94.1467 62.5905 94.3667 62.9905 94.3667H72.4005C72.8105 94.3667 73.1705 94.1467 73.3405 93.7967L74.0905 92.2867H61.2905H61.3005Z" fill="#383838"/>
<path d="M77.5911 87.3365H57.8111C57.2911 87.3365 56.8711 86.9165 56.8711 86.3965C56.8711 85.8765 57.2911 85.4565 57.8111 85.4565H77.5911C78.1111 85.4565 78.5311 85.8765 78.5311 86.3965C78.5311 86.9165 78.1111 87.3365 77.5911 87.3365Z" fill="#383838"/>
<path d="M67.7017 81.9764C67.1817 81.9764 66.7617 81.5564 66.7617 81.0364V65.2964C66.7617 64.7764 67.1817 64.3564 67.7017 64.3564C68.2217 64.3564 68.6417 64.7764 68.6417 65.2964V81.0364C68.6417 81.5564 68.2217 81.9764 67.7017 81.9764Z" fill="#383838"/>
<path d="M67.7013 66.2368C67.4513 66.2368 67.2113 66.1368 67.0413 65.9668L61.4513 60.3768C61.0813 60.0068 61.0813 59.4168 61.4513 59.0568C61.8213 58.6868 62.4113 58.6868 62.7713 59.0568L67.7013 63.9868L72.6313 59.0568C73.0013 58.6868 73.5913 58.6868 73.9513 59.0568C74.3113 59.4268 74.3213 60.0168 73.9513 60.3768L68.3613 65.9668C68.1813 66.1468 67.9513 66.2368 67.7013 66.2368Z" fill="#383838"/>
<path d="M72.4107 96.237H62.9907C61.8807 96.237 60.8807 95.617 60.3807 94.627L58.9507 91.767C58.8007 91.477 58.8207 91.127 58.9907 90.857C59.1607 90.577 59.4607 90.417 59.7907 90.417H75.6107C75.9307 90.417 76.2407 90.587 76.4107 90.857C76.5807 91.137 76.6007 91.477 76.4507 91.767L75.0207 94.627C74.5207 95.617 73.5207 96.237 72.4107 96.237ZM61.3107 92.287L62.0607 93.797C62.2407 94.147 62.5907 94.377 62.9907 94.377H72.4107C72.8107 94.377 73.1607 94.157 73.3407 93.797L74.0907 92.287H61.3007H61.3107Z" fill="#383838"/>
<path d="M75.6109 92.2868H59.7909C58.1809 92.2868 56.8809 90.9768 56.8809 89.3768V86.4068C56.8809 85.8868 57.3009 85.4668 57.8209 85.4668H77.6009C78.1209 85.4668 78.5409 85.8868 78.5409 86.4068V89.3768C78.5409 90.9868 77.2309 92.2868 75.6309 92.2868H75.6109ZM58.7509 87.3368V89.3668C58.7509 89.9368 59.2209 90.4068 59.7909 90.4068H75.6109C76.1809 90.4068 76.6509 89.9368 76.6509 89.3668V87.3368H58.7509Z" fill="#383838"/>
</svg>
