<svg width="136" height="136" viewBox="0 0 136 136" fill="none" xmlns="http://www.w3.org/2000/svg">
<rect x="0.5" y="0.5" width="135" height="135" rx="67.5" fill="white" stroke="#E8E8E8"/>
<path d="M65.5509 82.8802C55.9909 82.8802 48.2109 75.1002 48.2109 65.5302C48.2109 60.9002 50.0109 56.5402 53.2809 53.2702C56.5509 50.0002 60.9109 48.2002 65.5409 48.2002C68.6109 48.2002 71.6209 49.0102 74.2609 50.5402C74.7409 50.8202 74.9009 51.4302 74.6209 51.9102C74.3409 52.3902 73.7309 52.5502 73.2509 52.2702C70.9209 50.9102 68.2509 50.2002 65.5409 50.2002C61.4409 50.2002 57.5909 51.7902 54.6909 54.6902C51.8009 57.5802 50.2009 61.4402 50.2009 65.5402C50.2009 74.0102 57.0809 80.9002 65.5409 80.9002C74.0009 80.9002 80.9009 74.0102 80.9009 65.5402C80.9009 64.9902 81.3509 64.5402 81.9009 64.5402C82.4509 64.5402 82.9009 64.9902 82.9009 65.5402C82.9009 75.1102 75.1209 82.8902 65.5509 82.8902V82.8802Z" fill="#383838"/>
<path d="M65.53 91.08C58.71 91.08 52.3 88.42 47.48 83.6C42.66 78.77 40 72.36 40 65.53C40 51.45 51.45 40 65.53 40C70.24 40 74.85 41.29 78.85 43.74C79.32 44.03 79.47 44.64 79.18 45.11C78.89 45.58 78.28 45.73 77.81 45.44C74.12 43.18 69.88 41.99 65.53 41.99C52.55 41.99 42 52.55 42 65.52C42 71.81 44.45 77.73 48.89 82.18C53.33 86.63 59.24 89.08 65.53 89.08C71.82 89.08 77.74 86.63 82.19 82.18C86.64 77.73 89.09 71.82 89.09 65.52C89.09 64.97 89.54 64.52 90.09 64.52C90.64 64.52 91.09 64.97 91.09 65.52C91.09 72.35 88.43 78.77 83.61 83.59C78.79 88.41 72.37 91.07 65.54 91.07L65.53 91.08Z" fill="#383838"/>
<path d="M83.9501 95.1399C83.6301 95.1399 83.3101 94.9799 83.1201 94.6899L77.8701 86.7999C77.5601 86.3399 77.6901 85.7199 78.1501 85.4199C78.6101 85.1099 79.2301 85.2399 79.5301 85.6999L84.7801 93.5899C85.0901 94.0499 84.9601 94.6699 84.5001 94.9699C84.3301 95.0799 84.1401 95.1399 83.9501 95.1399Z" fill="#383838"/>
<path d="M47.1703 95.1399C46.9803 95.1399 46.7903 95.0899 46.6203 94.9699C46.1603 94.6599 46.0403 94.0399 46.3403 93.5899L51.5903 85.6999C51.9003 85.2399 52.5203 85.1199 52.9703 85.4199C53.4303 85.7299 53.5503 86.3499 53.2503 86.7999L48.0003 94.6899C47.8103 94.9799 47.4903 95.1399 47.1703 95.1399Z" fill="#383838"/>
<path d="M65.5398 66.6299C65.1898 66.6299 64.8598 66.4499 64.6698 66.1299C64.3998 65.6499 64.5598 65.0399 65.0398 64.7699L87.8598 51.7299C88.3398 51.4599 88.9498 51.6199 89.2198 52.0999C89.4898 52.5799 89.3298 53.1899 88.8498 53.4599L66.0298 66.4999C65.8698 66.5899 65.6998 66.6299 65.5398 66.6299Z" fill="#383838"/>
<path d="M88.8103 57.6999C88.7403 57.6999 88.6603 57.6999 88.5903 57.6799L83.1103 56.4499C82.5703 56.3299 82.2303 55.7999 82.3503 55.2599L83.7003 49.2099C83.8203 48.6699 84.3503 48.3299 84.8903 48.4499C85.4303 48.5699 85.7703 49.0999 85.6503 49.6399L84.5203 54.7099L89.0203 55.7199C89.5603 55.8399 89.9003 56.3699 89.7803 56.9099C89.6803 57.3699 89.2603 57.6899 88.8103 57.6899V57.6999Z" fill="#383838"/>
<path d="M94.1703 54.6398C94.1103 54.6398 94.0503 54.6398 93.9903 54.6198L88.1903 53.5798C87.9303 53.5298 87.7003 53.3798 87.5503 53.1698C87.4003 52.9498 87.3403 52.6798 87.3903 52.4198L88.4703 46.5398C88.5703 45.9998 89.0903 45.6398 89.6303 45.7398C90.1703 45.8398 90.5303 46.3598 90.4303 46.8998L89.5303 51.7998L94.3503 52.6598C94.8903 52.7598 95.2503 53.2798 95.1603 53.8198C95.0703 54.2998 94.6503 54.6398 94.1803 54.6398H94.1703Z" fill="#383838"/>
<path d="M83.521 60.7296C83.431 60.7296 83.351 60.7196 83.261 60.6996L78.071 59.3096C77.541 59.1696 77.221 58.6196 77.361 58.0896L78.991 51.8796C79.131 51.3496 79.681 51.0296 80.211 51.1696C80.741 51.3096 81.061 51.8596 80.921 52.3896L79.541 57.6396L83.771 58.7696C84.301 58.9096 84.621 59.4596 84.481 59.9896C84.361 60.4396 83.961 60.7296 83.521 60.7296Z" fill="#383838"/>
<path d="M65.5606 74.6999C60.5106 74.6999 56.3906 70.5899 56.3906 65.5299C56.3906 60.4699 60.5006 56.3599 65.5606 56.3599C67.1406 56.3599 68.6906 56.7699 70.0606 57.5399C70.5406 57.8099 70.7106 58.4199 70.4406 58.8999C70.1706 59.3799 69.5606 59.5499 69.0806 59.2799C68.0106 58.6799 66.8006 58.3599 65.5606 58.3599C61.6106 58.3599 58.3906 61.5799 58.3906 65.5299C58.3906 69.4799 61.6106 72.6999 65.5606 72.6999C69.5106 72.6999 72.7306 69.4799 72.7306 65.5299C72.7306 64.9799 73.1806 64.5299 73.7306 64.5299C74.2806 64.5299 74.7306 64.9799 74.7306 65.5299C74.7306 70.5799 70.6206 74.6999 65.5606 74.6999Z" fill="#383838"/>
</svg>
