<svg width="18" height="20" viewBox="0 0 18 20" fill="none" xmlns="http://www.w3.org/2000/svg">
<path fill-rule="evenodd" clip-rule="evenodd" d="M17.942 6.1872C17.9319 5.38524 17.7902 4.59125 17.5232 3.84076C17.055 2.56075 16.0997 1.54873 14.8914 1.05277C14.192 0.774662 13.4532 0.624287 12.7064 0.608042C11.7448 0.562511 11.4399 0.549805 8.999 0.549805C6.55809 0.549805 6.24522 0.549805 5.29065 0.608042C4.54414 0.624406 3.80566 0.774779 3.10662 1.05277C1.8981 1.5484 0.94266 2.56053 0.474789 3.84076C0.211737 4.58104 0.070092 5.36352 0.0559751 6.15437C0.0129942 7.17406 0 7.49701 0 10.0828C0 12.6685 0 12.9989 0.0559751 14.0111C0.0709685 14.8032 0.211906 15.5846 0.474789 16.3269C0.943437 17.6067 1.89913 18.6183 3.10762 19.1138C3.80474 19.4031 4.54335 19.5642 5.29165 19.5903C6.25422 19.6358 6.55908 19.6496 9 19.6496C11.4409 19.6496 11.7538 19.6496 12.7084 19.5903C13.4552 19.5747 14.1941 19.4247 14.8934 19.1466C16.1013 18.6501 17.0565 17.6383 17.5252 16.3586C17.7881 15.6174 17.929 14.836 17.944 14.0429C17.987 13.0243 18 12.7013 18 10.1145L18 10.0792V10.079C17.998 7.52575 17.9977 7.19588 17.942 6.1872ZM8.99204 14.9729C6.43918 14.9729 4.37109 12.7821 4.37109 10.0777C4.37109 7.37341 6.43918 5.18262 8.99204 5.18262C11.5441 5.18262 13.613 7.37424 13.613 10.0777C13.613 12.7813 11.5441 14.9729 8.99204 14.9729ZM13.036 5.80872C13.2381 6.02285 13.5124 6.14302 13.7982 6.14273C14.393 6.14273 14.8747 5.63236 14.8747 5.00128C14.8747 4.59366 14.6695 4.21701 14.3362 4.01321C14.003 3.8094 13.5924 3.8094 13.2592 4.01321C12.926 4.21701 12.7207 4.59366 12.7207 5.00128C12.7204 5.3041 12.8339 5.59459 13.036 5.80872Z" fill="black"/>
</svg>
