<svg width="18" height="18" viewBox="0 0 18 18" fill="none" xmlns="http://www.w3.org/2000/svg">
<path d="M3.48998 11.1231C3.94998 10.8531 4.38998 10.5931 4.84998 10.3431C4.96998 10.2831 5.10998 10.2331 5.24998 10.2331C7.14998 10.2331 9.05998 10.2331 10.96 10.2331C11.59 10.2331 12.09 10.4231 12.42 10.9931C12.47 10.9431 12.51 10.9131 12.55 10.8731C13.29 10.1331 14.02 9.39306 14.76 8.66306C15.49 7.94306 16.7 8.16306 17.11 9.08306C17.36 9.63306 17.24 10.2731 16.79 10.7231C16.1 11.4231 15.4 12.1131 14.71 12.8031C13.88 13.6331 13.04 14.4631 12.21 15.3031C12.1 15.4131 11.98 15.4631 11.82 15.4631C9.95998 15.4631 8.09998 15.4831 6.23998 15.4931C6.17998 15.4931 6.10998 15.4931 6.00998 15.4931C6.05998 15.5931 6.10998 15.6631 6.14998 15.7331C6.23998 15.9031 6.19998 16.0731 6.02998 16.1731C5.12998 16.6931 4.21998 17.2231 3.30998 17.7431C3.12998 17.8531 2.96998 17.7831 2.84998 17.5831C2.22998 16.5131 1.60998 15.4331 0.989983 14.3631C0.689983 13.8331 0.379983 13.3031 0.0799829 12.7831C-0.0600171 12.5331 -0.0200171 12.3931 0.229983 12.2431C1.07998 11.7531 1.92998 11.2631 2.77998 10.7731C3.07998 10.6031 3.19998 10.6331 3.36998 10.9331C3.39998 10.9931 3.43998 11.0431 3.47998 11.1231H3.48998ZM3.81998 11.6531C3.81998 11.6531 3.81998 11.7031 3.83998 11.7131C4.43998 12.7431 5.02998 13.7831 5.62998 14.8031C5.65998 14.8531 5.73998 14.8831 5.79998 14.8831C7.75998 14.8831 9.71998 14.8631 11.69 14.8431C11.76 14.8431 11.85 14.8031 11.9 14.7531C13.39 13.2731 14.88 11.7831 16.37 10.2931C16.72 9.94306 16.73 9.43306 16.41 9.09306C16.08 8.75306 15.56 8.76306 15.2 9.12306C14.35 9.97306 13.5 10.8131 12.66 11.6631C12.62 11.7031 12.59 11.7631 12.58 11.8131C12.42 12.5331 11.87 12.9731 11.13 12.9831C10.55 12.9831 9.95998 12.9831 9.37998 12.9831C9.26998 12.9831 9.15998 12.9831 9.04998 12.9831C8.88998 12.9731 8.76998 12.8531 8.74998 12.7031C8.73998 12.5531 8.79998 12.4431 8.93998 12.3931C8.99998 12.3731 9.07998 12.3731 9.14998 12.3731C9.80998 12.3731 10.48 12.3731 11.14 12.3731C11.73 12.3731 12.11 11.8631 11.91 11.3531C11.79 11.0331 11.51 10.8731 11.1 10.8731C9.23998 10.8731 7.36998 10.8731 5.50998 10.8731C5.29998 10.8731 5.11998 10.9231 4.93998 11.0231C4.56998 11.2431 4.19998 11.4531 3.82998 11.6731L3.81998 11.6531ZM5.47998 15.8031C4.62998 14.3331 3.78998 12.8731 2.93998 11.4031C2.19998 11.8331 1.47998 12.2431 0.749983 12.6731C1.59998 14.1431 2.43998 15.6031 3.28998 17.0731C4.02998 16.6531 4.74998 16.2331 5.48998 15.8031H5.47998Z" fill="#383838"/>
<path d="M9.33957 2.75297C9.40957 2.58297 9.45957 2.45297 9.50957 2.31297C10.0596 0.992967 11.0696 0.282967 12.4596 0.0729673C13.4896 -0.0770327 14.5096 0.0129673 15.5196 0.262967C15.7196 0.312967 15.8096 0.402967 15.8096 0.602967C15.8596 1.76297 15.7696 2.91297 15.2996 3.99297C14.7496 5.25297 13.7696 5.94297 12.4396 6.15297C11.5396 6.29297 10.6496 6.24297 9.75957 6.07297C9.72957 6.07297 9.69957 6.07297 9.64957 6.06297V6.25297C9.64957 7.13297 9.64957 8.02297 9.64957 8.90297C9.64957 8.96297 9.64957 9.02297 9.64957 9.08297C9.62957 9.23297 9.53957 9.32297 9.39957 9.34297C9.24957 9.36297 9.12957 9.30297 9.06957 9.16297C9.03957 9.09297 9.03957 9.01297 9.03957 8.94297C9.03957 8.05297 9.03957 7.15297 9.03957 6.26297V6.08297C8.67957 6.13297 8.33957 6.18297 7.99957 6.21297C7.19957 6.28297 6.40957 6.25297 5.63957 6.02297C4.37957 5.63297 3.61957 4.75297 3.21957 3.53297C2.90957 2.58297 2.82957 1.59297 2.88957 0.592967C2.88957 0.432967 2.97957 0.322967 3.13957 0.282967C4.01957 0.0629673 4.90957 -0.0370327 5.80957 0.0329673C6.35957 0.0729673 6.89957 0.182967 7.39957 0.412967C8.35957 0.842967 8.93957 1.61297 9.28957 2.57297C9.30957 2.62297 9.31957 2.66297 9.34957 2.75297H9.33957ZM8.65957 5.48297C8.58957 5.43297 8.54957 5.41297 8.51957 5.38297C7.93957 4.90297 7.35957 4.42297 6.77957 3.94297C6.46957 3.68297 6.15957 3.43297 5.84957 3.17297C5.69957 3.04297 5.67957 2.86297 5.78957 2.72297C5.89957 2.58297 6.07957 2.57297 6.23957 2.69297C6.28957 2.73297 6.32957 2.77297 6.37957 2.80297C7.20957 3.49297 8.03957 4.17297 8.87957 4.86297C8.91957 4.89297 8.95957 4.91297 9.00957 4.95297C9.00957 4.89297 9.00957 4.86297 9.00957 4.82297C9.03957 4.05297 8.88957 3.30297 8.60957 2.59297C8.25957 1.71297 7.65957 1.08297 6.73957 0.822967C6.38957 0.722967 6.02957 0.662967 5.66957 0.632967C4.96957 0.572967 4.27957 0.632967 3.59957 0.812967C3.55957 0.822967 3.49957 0.892967 3.48957 0.932967C3.43957 1.81297 3.54957 2.68297 3.85957 3.51297C4.16957 4.34297 4.67957 5.00297 5.54957 5.30297C5.91957 5.43297 6.31957 5.51297 6.70957 5.56297C7.33957 5.63297 7.97957 5.60297 8.65957 5.46297V5.48297ZM10.0396 5.49297C10.8496 5.63297 11.6096 5.66297 12.3696 5.53297C13.4096 5.36297 14.2096 4.85297 14.6696 3.87297C15.0996 2.96297 15.2296 1.99297 15.1996 0.992967C15.1996 0.852967 15.1296 0.812967 15.0096 0.782967C14.1296 0.592967 13.2496 0.552967 12.3696 0.712967C11.3396 0.902967 10.5596 1.44297 10.1596 2.42297C9.97957 2.85297 9.86957 3.31297 9.75957 3.76297C9.66957 4.14297 9.63957 4.54297 9.69957 4.96297C9.73957 4.93297 9.77957 4.90297 9.80957 4.88297C10.3596 4.43297 10.8996 3.98297 11.4496 3.53297C11.7896 3.25297 12.1196 2.97297 12.4596 2.70297C12.6096 2.58297 12.7896 2.60297 12.8996 2.72297C13.0196 2.85297 12.9996 3.03297 12.8496 3.17297C12.8296 3.19297 12.8096 3.21297 12.7896 3.22297C12.2596 3.65297 11.7396 4.09297 11.2096 4.52297C10.8296 4.83297 10.4596 5.14297 10.0496 5.48297L10.0396 5.49297Z" fill="#383838"/>
</svg>
