<svg width="20" height="12" viewBox="0 0 20 12" fill="none" xmlns="http://www.w3.org/2000/svg">
<path d="M4.39843 9.70206H4.17695C3.13284 9.70206 2.08874 9.70206 1.04463 9.70206C0.390746 9.70206 0.0110714 9.31184 0.000524887 8.64741C-0.0311147 6.44319 1.37157 4.7452 3.14339 4.16514C3.16448 4.16514 3.18557 4.15459 3.21721 4.1335C2.53169 3.57453 2.21529 2.87846 2.31021 2.0031C2.37349 1.43359 2.63716 0.958996 3.06956 0.579321C3.95547 -0.211668 5.32652 -0.158936 6.18079 0.67424C6.96123 1.44414 7.24599 3.05775 5.92767 4.1335C6.05423 4.17569 6.17024 4.21787 6.28625 4.2706C6.81358 4.49208 7.28817 4.78738 7.68894 5.17761C7.77331 5.25143 7.83659 5.27252 7.93151 5.23034C8.04752 5.17761 8.17408 5.14597 8.31118 5.10378C7.46746 4.49208 7.0456 3.68 7.11943 2.64644C7.17216 1.96092 7.46746 1.37031 7.9737 0.906263C9.0389 -0.0534703 10.642 -0.0112843 11.6333 0.990635C12.2239 1.59179 12.4771 2.3195 12.3927 3.14213C12.3083 3.96476 11.897 4.60809 11.2115 5.08269C11.2326 5.09323 11.2326 5.10378 11.2326 5.10378C11.4962 5.25143 11.7072 5.1987 11.9392 4.97722C12.361 4.57645 12.8989 4.31279 13.479 4.12295C12.7724 3.54289 12.4454 2.82573 12.572 1.92928C12.6564 1.34922 12.9306 0.864077 13.3946 0.505495C14.3438 -0.264401 15.7148 -0.137843 16.5269 0.769158C17.3179 1.65507 17.3601 3.17377 16.1789 4.12295C16.2211 4.14405 16.2633 4.16514 16.2949 4.17569C18.014 4.81902 19.0265 6.04242 19.3323 7.85642C19.385 8.17282 19.385 8.51031 19.3745 8.8267C19.3534 9.32239 18.9315 9.69152 18.3831 9.69152C17.3601 9.69152 16.3476 9.69152 15.3246 9.69152C15.2613 9.69152 15.1981 9.69152 15.1137 9.69152C15.1137 9.96573 15.1137 10.2294 15.1137 10.4825C15.1137 11.2102 14.6602 11.6637 13.9325 11.6637C11.1377 11.6637 8.35337 11.6637 5.55854 11.6637C4.84138 11.6637 4.39843 11.2102 4.38788 10.4931C4.38788 10.2294 4.38788 9.97627 4.38788 9.69152L4.39843 9.70206ZM9.74551 11.0731C10.8529 11.0731 11.9497 11.0731 13.0571 11.0731C13.3841 11.0731 13.711 11.0731 14.0379 11.0731C14.3227 11.0731 14.5231 10.8833 14.5125 10.6091C14.4914 10.1872 14.4809 9.7548 14.3965 9.34348C13.7743 6.21116 10.2517 4.57645 7.47801 6.13734C5.80111 7.08653 5.01012 8.57358 4.99958 10.4931C4.99958 10.9149 5.15777 11.0731 5.57964 11.0731C6.97178 11.0731 8.36392 11.0731 9.74551 11.0731ZM7.16161 5.56783C7.10888 5.51509 7.07724 5.48345 7.03506 5.45182C5.73783 4.39716 3.91329 4.26006 2.50005 5.15651C1.20283 5.9686 0.601677 7.18144 0.62277 8.70014C0.62277 9.00599 0.738782 9.122 1.04463 9.122C2.15202 9.122 3.2594 9.10091 4.36679 9.10091C4.47225 9.10091 4.51444 9.07982 4.54608 8.96381C4.74646 8.16227 5.11559 7.45565 5.64291 6.82286C6.06478 6.31663 6.57101 5.90531 7.17216 5.56783H7.16161ZM14.9977 9.09036C15.2719 9.09036 15.5461 9.09036 15.8203 9.09036C16.6535 9.09036 17.4867 9.09036 18.3198 9.09036C18.6573 9.09036 18.7733 8.9849 18.7522 8.63686C18.7522 8.38375 18.7312 8.12009 18.689 7.86697C18.2987 5.38854 15.7254 3.91202 13.3841 4.82957C12.9727 4.98777 12.5931 5.20924 12.2556 5.51509C13.6899 6.31663 14.5969 7.49784 14.9977 9.09036ZM9.73497 0.853531C8.63813 0.853531 7.72058 1.74998 7.72058 2.82573C7.72058 3.98585 8.60649 4.9034 9.75606 4.9034C10.8634 4.9034 11.7704 3.99639 11.7704 2.87846C11.7704 1.76053 10.8634 0.853531 9.73497 0.853531ZM14.8289 3.94366C15.7359 3.94366 16.4636 3.20541 16.4742 2.30895C16.4742 1.3914 15.7254 0.653147 14.8078 0.663693C13.9114 0.663693 13.1731 1.4125 13.1731 2.30895C13.1731 3.21595 13.9219 3.95421 14.8289 3.94366ZM6.19133 2.2984C6.19133 1.3914 5.46362 0.663693 4.55662 0.653147C3.66017 0.653147 2.90082 1.38086 2.90082 2.24567C2.90082 3.19486 3.61798 3.93312 4.54608 3.94366C5.46362 3.94366 6.19133 3.21595 6.19133 2.2984Z" fill="#383838"/>
</svg>
