<svg width="18" height="18" viewBox="0 0 18 18" fill="none" xmlns="http://www.w3.org/2000/svg">
<path d="M3.94 3.41V3.22C3.94 2.27 3.94 1.33 3.94 0.38C3.94 0.1 4.04 0 4.32 0C8.46 0 12.61 0 16.75 0C17.04 0 17.14 0.1 17.14 0.39C17.14 5.32 17.14 10.25 17.14 15.19C17.14 16.31 16.3 17.15 15.19 17.15C10.9 17.15 6.61 17.15 2.32 17.15C0.99 17.15 0 16.15 0 14.83C0 11.16 0 7.49 0 3.81C0 3.5 0.0900001 3.41 0.4 3.41C1.51 3.41 2.63 3.41 3.74 3.41C3.8 3.41 3.85 3.41 3.94 3.41ZM16.54 0.62H4.54C4.54 0.7 4.54 0.77 4.54 0.83C4.54 5.51 4.54 10.19 4.54 14.87C4.54 15.41 4.37 15.88 4.04 16.3C3.98 16.38 3.9 16.45 3.81 16.56H4C7.71 16.56 11.42 16.56 15.13 16.56C16 16.56 16.54 16.01 16.54 15.14C16.54 10.36 16.54 5.58 16.54 0.8C16.54 0.74 16.54 0.69 16.54 0.62ZM0.6 4.02C0.6 4.02 0.6 4.08 0.6 4.11C0.6 7.72 0.6 11.34 0.6 14.95C0.6 15.81 1.34 16.54 2.2 16.56C3.18 16.58 3.94 15.85 3.94 14.86C3.94 11.3 3.94 7.74 3.94 4.18C3.94 4.13 3.94 4.08 3.94 4.02H0.61H0.6Z" fill="#383838"/>
<path d="M10.5398 4.58009C9.15977 4.58009 7.78977 4.58009 6.40977 4.58009C6.08977 4.58009 6.00977 4.50009 6.00977 4.18009C6.00977 3.61009 6.00977 3.04009 6.00977 2.46009C6.00977 2.19009 6.10977 2.09009 6.37977 2.09009C9.14977 2.09009 11.9198 2.09009 14.6998 2.09009C14.9698 2.09009 15.0698 2.20009 15.0698 2.46009C15.0698 3.04009 15.0698 3.63009 15.0698 4.21009C15.0698 4.48009 14.9698 4.58009 14.6998 4.58009C13.3098 4.58009 11.9298 4.58009 10.5398 4.58009ZM6.61977 3.98009H14.4598V2.71009H6.61977V3.98009Z" fill="#383838"/>
<path d="M6.00977 8.92005C6.00977 8.17005 6.00977 7.43005 6.00977 6.68005C6.00977 6.40005 6.09977 6.31005 6.38977 6.30005C7.41977 6.30005 8.44977 6.30005 9.47977 6.30005C9.75977 6.30005 9.85977 6.40005 9.85977 6.68005C9.85977 8.17005 9.85977 9.65005 9.85977 11.14C9.85977 11.42 9.74977 11.53 9.46977 11.53C8.44977 11.53 7.41977 11.53 6.39977 11.53C6.10977 11.53 6.01977 11.43 6.01977 11.14C6.01977 10.4 6.01977 9.66005 6.01977 8.92005H6.00977ZM9.24977 10.92V6.91005H6.61977V10.92H9.24977Z" fill="#383838"/>
<path d="M7.94039 13.84C7.46039 13.84 6.98039 13.84 6.51039 13.84C6.28039 13.84 6.15039 13.72 6.15039 13.53C6.15039 13.35 6.29039 13.24 6.51039 13.24C7.47039 13.24 8.42039 13.24 9.38039 13.24C9.59039 13.24 9.73039 13.36 9.73039 13.54C9.73039 13.72 9.59039 13.84 9.38039 13.84C8.90039 13.84 8.42039 13.84 7.95039 13.84H7.94039Z" fill="#383838"/>
<path d="M13.3004 6.31006C13.7704 6.31006 14.2404 6.31006 14.7204 6.31006C14.9504 6.31006 15.0704 6.41006 15.0804 6.60006C15.0804 6.79006 14.9504 6.91006 14.7304 6.91006C13.7704 6.91006 12.8204 6.91006 11.8604 6.91006C11.7004 6.91006 11.5804 6.86006 11.5304 6.70006C11.4904 6.57006 11.5204 6.44006 11.6404 6.37006C11.7004 6.33006 11.7904 6.32006 11.8604 6.32006C12.3404 6.32006 12.8304 6.32006 13.3104 6.32006L13.3004 6.31006Z" fill="#383838"/>
<path d="M13.2998 13.25C13.7698 13.25 14.2498 13.25 14.7198 13.25C14.9498 13.25 15.0798 13.36 15.0798 13.56C15.0798 13.74 14.9498 13.85 14.7298 13.85C13.7698 13.85 12.8198 13.85 11.8598 13.85C11.6398 13.85 11.5098 13.74 11.5098 13.55C11.5098 13.36 11.6398 13.25 11.8598 13.25C12.3398 13.25 12.8298 13.25 13.3098 13.25H13.2998Z" fill="#383838"/>
<path d="M13.27 9.21011C12.79 9.21011 12.31 9.21011 11.84 9.21011C11.63 9.21011 11.5 9.10011 11.5 8.92011C11.5 8.73011 11.62 8.61011 11.84 8.61011C12.81 8.61011 13.77 8.61011 14.74 8.61011C14.94 8.61011 15.07 8.73011 15.07 8.91011C15.07 9.09011 14.95 9.21011 14.74 9.21011C14.25 9.21011 13.76 9.21011 13.28 9.21011H13.27Z" fill="#383838"/>
<path d="M13.2996 10.9299C13.7596 10.9299 14.2096 10.9299 14.6696 10.9299C14.7196 10.9299 14.7796 10.9299 14.8296 10.9299C14.9696 10.9499 15.0696 11.0599 15.0696 11.1999C15.0696 11.3499 15.0096 11.4599 14.8696 11.4999C14.8096 11.5199 14.7496 11.5199 14.6796 11.5199C13.7496 11.5199 12.8096 11.5199 11.8796 11.5199C11.8496 11.5199 11.8296 11.5199 11.7996 11.5199C11.6096 11.4999 11.4896 11.3799 11.4996 11.1999C11.4996 11.0299 11.6296 10.9199 11.8096 10.9199C12.2996 10.9199 12.7996 10.9199 13.2896 10.9199L13.2996 10.9299Z" fill="#383838"/>
</svg>
