<svg width="20" height="20" viewBox="0 0 20 20" fill="none" xmlns="http://www.w3.org/2000/svg">
<path d="M14.4402 4.53988C14.5302 4.53988 14.6002 4.53988 14.6702 4.53988C15.7802 4.53988 16.8902 4.53988 18.0002 4.53988C18.8102 4.53988 19.3302 5.06988 19.3302 5.87988C19.3302 6.99988 19.3302 8.10988 19.3302 9.22988C19.3302 9.65988 19.1602 9.97988 18.7602 10.1499C18.6502 10.1999 18.6602 10.2799 18.6602 10.3699C18.6602 11.7099 18.6602 13.0499 18.6602 14.3899C18.6602 15.2999 18.6602 16.2099 18.6602 17.1199C18.6602 17.7999 18.2702 18.2899 17.6302 18.4099C17.5402 18.4299 17.4402 18.4299 17.3402 18.4299C12.4402 18.4299 7.54016 18.4299 2.65016 18.4299C1.85016 18.4299 1.33016 17.9099 1.32016 17.1099C1.32016 15.5099 1.32016 13.8999 1.32016 12.2999C1.32016 11.6499 1.32016 11.0099 1.32016 10.3599C1.32016 10.2399 1.29016 10.1899 1.18016 10.1299C0.840156 9.95988 0.660156 9.66988 0.660156 9.28988C0.660156 8.12988 0.660156 6.96988 0.660156 5.81988C0.660156 5.09988 1.20016 4.54988 1.93016 4.54988C3.05016 4.54988 4.16016 4.54988 5.28016 4.54988C5.35016 4.54988 5.42016 4.54988 5.52016 4.54988C5.52016 4.26988 5.52016 4.00988 5.52016 3.73988C5.53016 2.77988 6.07016 1.98988 6.94016 1.69988C7.17016 1.61988 7.43016 1.57988 7.68016 1.57988C9.21016 1.56988 10.7302 1.57988 12.2602 1.57988C13.5102 1.57988 14.4202 2.47988 14.4402 3.71988C14.4402 3.98988 14.4402 4.24988 14.4402 4.54988V4.53988ZM1.85016 10.3299V10.5499C1.85016 12.7299 1.85016 14.8999 1.85016 17.0799C1.85016 17.5899 2.18016 17.9299 2.70016 17.9299C7.57016 17.9299 12.4502 17.9299 17.3202 17.9299C17.8602 17.9299 18.1702 17.5599 18.1602 17.0899C18.1502 14.9099 18.1602 12.7199 18.1602 10.5399V10.3299C17.7202 10.4399 17.3002 10.5499 16.8802 10.6499C15.0202 11.1199 13.1602 11.5999 11.3002 12.0699C11.1702 12.0999 11.1202 12.1499 11.1302 12.2899C11.1402 12.5199 11.1302 12.7499 11.1302 12.9799C11.1302 13.4299 10.8202 13.7299 10.3702 13.7399C10.1302 13.7399 9.89016 13.7399 9.65016 13.7399C9.14016 13.7399 8.84016 13.4399 8.84016 12.9299C8.84016 12.6599 8.84016 12.3899 8.84016 12.1099C6.52016 11.5199 4.20016 10.9299 1.86016 10.3299H1.85016ZM11.1302 11.5799C11.2002 11.5699 11.2602 11.5599 11.3102 11.5499C13.6702 10.9499 16.0302 10.3399 18.3902 9.73988C18.7402 9.64988 18.8302 9.53988 18.8302 9.16988C18.8302 8.07988 18.8302 6.99988 18.8302 5.90988C18.8302 5.41988 18.5302 5.05988 17.9802 5.05988C16.6902 5.07988 15.4002 5.05988 14.1102 5.05988C10.0802 5.05988 6.05016 5.05988 2.02016 5.05988C1.47016 5.05988 1.18016 5.40988 1.18016 5.83988C1.18016 6.96988 1.18016 8.10988 1.18016 9.23988C1.18016 9.51988 1.28016 9.64988 1.55016 9.70988C3.62016 10.2399 5.70016 10.7699 7.77016 11.2999C8.11016 11.3899 8.45016 11.4699 8.82016 11.5699C8.82016 11.4199 8.82016 11.2899 8.82016 11.1699C8.86016 10.7499 9.15016 10.4799 9.57016 10.4699C9.84016 10.4699 10.1002 10.4699 10.3702 10.4699C10.7902 10.4699 11.1002 10.7799 11.1102 11.1999C11.1102 11.3199 11.1102 11.4399 11.1102 11.5899L11.1302 11.5799ZM6.92016 4.52988C6.92016 4.24988 6.92016 3.98988 6.92016 3.73988C6.92016 3.24988 7.21016 2.95988 7.71016 2.95988C9.22016 2.95988 10.7402 2.95988 12.2502 2.95988C12.7602 2.95988 13.0502 3.24988 13.0502 3.74988C13.0502 4.00988 13.0502 4.26988 13.0502 4.52988H13.9202C13.9202 4.23988 13.9202 3.96988 13.9202 3.68988C13.9202 2.77988 13.2302 2.08988 12.3202 2.07988C10.7702 2.07988 9.22016 2.07988 7.67016 2.07988C7.04016 2.07988 6.56016 2.35988 6.25016 2.90988C5.96016 3.41988 6.08016 3.97988 6.06016 4.52988H6.93016H6.92016ZM12.5302 4.52988C12.5302 4.26988 12.5302 4.02988 12.5302 3.77988C12.5302 3.52988 12.4802 3.46988 12.2202 3.46988C10.7502 3.46988 9.28016 3.46988 7.81016 3.46988C7.74016 3.46988 7.67016 3.44988 7.61016 3.46988C7.54016 3.50988 7.43016 3.57988 7.43016 3.64988C7.41016 3.93988 7.43016 4.21988 7.43016 4.51988H12.5302V4.52988ZM9.34016 12.0999C9.34016 12.3799 9.34016 12.6499 9.34016 12.9299C9.34016 13.1399 9.42016 13.2199 9.64016 13.2199C9.87016 13.2199 10.1002 13.2199 10.3302 13.2199C10.5302 13.2199 10.6202 13.1299 10.6202 12.9399C10.6202 12.3799 10.6202 11.8199 10.6202 11.2599C10.6202 11.0699 10.5302 10.9799 10.3302 10.9799C10.1002 10.9799 9.86016 10.9799 9.63016 10.9799C9.44016 10.9799 9.36016 11.0699 9.35016 11.2599C9.35016 11.5399 9.35016 11.8299 9.35016 12.1099L9.34016 12.0999Z" fill="#383838"/>
</svg>
