<svg width="19" height="19" viewBox="0 0 19 19" fill="none" xmlns="http://www.w3.org/2000/svg">
<path d="M9.36 0C9.82 0 10.29 0 10.75 0C11.24 0 11.61 0.36 11.62 0.85C11.62 1.1 11.62 1.35 11.62 1.6C11.62 1.7 11.64 1.74 11.74 1.78C12.17 1.95 12.59 2.12 13 2.31C13.09 2.35 13.14 2.34 13.2 2.27C13.37 2.09 13.55 1.92 13.73 1.74C14.09 1.39 14.59 1.38 14.95 1.73C15.62 2.39 16.28 3.05 16.94 3.72C17.3 4.08 17.28 4.58 16.93 4.95C16.76 5.13 16.58 5.31 16.4 5.48C16.34 5.54 16.33 5.59 16.37 5.67C16.55 6.09 16.73 6.52 16.9 6.95C16.94 7.04 16.98 7.07 17.07 7.06C17.31 7.06 17.55 7.06 17.78 7.06C18.31 7.06 18.68 7.42 18.68 7.95C18.68 8.87 18.68 9.79 18.68 10.72C18.68 11.23 18.32 11.59 17.8 11.6C17.55 11.6 17.3 11.6 17.05 11.6C16.96 11.6 16.93 11.63 16.89 11.71C16.72 12.14 16.54 12.57 16.36 12.99C16.32 13.08 16.33 13.13 16.4 13.19C16.58 13.36 16.76 13.54 16.93 13.72C17.28 14.08 17.28 14.58 16.93 14.94C16.27 15.61 15.61 16.27 14.94 16.93C14.58 17.28 14.08 17.27 13.72 16.93C13.54 16.76 13.36 16.58 13.19 16.4C13.13 16.33 13.08 16.32 12.99 16.36C12.57 16.55 12.14 16.72 11.71 16.89C11.62 16.92 11.6 16.96 11.6 17.05C11.6 17.3 11.6 17.55 11.6 17.8C11.6 18.31 11.23 18.68 10.72 18.68C9.79 18.68 8.86 18.68 7.94 18.68C7.44 18.68 7.07 18.32 7.06 17.82C7.06 17.57 7.06 17.32 7.06 17.07C7.06 16.98 7.04 16.94 6.95 16.9C6.52 16.73 6.09 16.55 5.67 16.37C5.59 16.33 5.54 16.34 5.48 16.4C5.31 16.58 5.13 16.75 4.95 16.93C4.58 17.29 4.08 17.29 3.71 16.93C3.05 16.28 2.39 15.62 1.74 14.96C1.38 14.59 1.39 14.09 1.75 13.72C1.92 13.55 2.09 13.37 2.27 13.21C2.34 13.14 2.34 13.09 2.31 13.01C2.13 12.59 1.95 12.17 1.78 11.75C1.74 11.65 1.69 11.62 1.6 11.63C1.36 11.63 1.11 11.63 0.87 11.63C0.36 11.63 0 11.26 0 10.75C0 9.83 0 8.91 0 7.98C0 7.46 0.36 7.1 0.88 7.09C1.12 7.09 1.37 7.09 1.61 7.09C1.7 7.09 1.74 7.06 1.78 6.97C1.95 6.55 2.12 6.12 2.31 5.71C2.35 5.61 2.34 5.56 2.27 5.49C2.09 5.32 1.92 5.15 1.75 4.97C1.39 4.6 1.39 4.1 1.75 3.74C2.41 3.08 3.07 2.42 3.73 1.76C4.09 1.4 4.59 1.41 4.96 1.76C5.13 1.93 5.31 2.1 5.48 2.28C5.55 2.35 5.6 2.37 5.7 2.32C6.12 2.14 6.54 1.96 6.96 1.79C7.05 1.75 7.08 1.72 7.08 1.62C7.08 1.37 7.08 1.12 7.08 0.87C7.08 0.37 7.45 0.01 7.95 0C8.42 0 8.89 0 9.36 0ZM9.35 0.58C8.9 0.58 8.44 0.58 7.99 0.58C7.75 0.58 7.65 0.68 7.65 0.92C7.65 1.25 7.65 1.59 7.65 1.92C7.65 2.1 7.57 2.2 7.4 2.25C6.81 2.41 6.25 2.64 5.72 2.95C5.54 3.05 5.44 3.04 5.3 2.89C5.07 2.66 4.84 2.43 4.6 2.19C4.42 2.01 4.28 2.01 4.1 2.19C3.46 2.83 2.83 3.46 2.19 4.1C2.02 4.27 2.02 4.41 2.19 4.58C2.42 4.82 2.66 5.05 2.9 5.29C3.03 5.41 3.05 5.55 2.96 5.7C2.65 6.24 2.42 6.8 2.25 7.4C2.2 7.57 2.09 7.65 1.92 7.65C1.59 7.65 1.26 7.65 0.94 7.65C0.69 7.65 0.59 7.75 0.59 7.99C0.59 8.89 0.59 9.79 0.59 10.69C0.59 10.95 0.69 11.04 0.95 11.04C1.27 11.04 1.58 11.04 1.9 11.04C2.13 11.04 2.2 11.09 2.26 11.31C2.43 11.89 2.65 12.44 2.95 12.96C3.06 13.15 3.04 13.25 2.88 13.41C2.65 13.64 2.42 13.87 2.18 14.11C2.02 14.27 2.02 14.42 2.18 14.58C2.82 15.22 3.46 15.86 4.1 16.5C4.27 16.67 4.41 16.66 4.58 16.5C4.82 16.27 5.05 16.03 5.29 15.79C5.42 15.66 5.55 15.65 5.7 15.73C6.24 16.04 6.8 16.27 7.4 16.44C7.57 16.49 7.64 16.59 7.64 16.76C7.64 17.09 7.64 17.43 7.64 17.76C7.64 18.01 7.74 18.11 7.99 18.11C8.89 18.11 9.79 18.11 10.69 18.11C10.94 18.11 11.04 18.01 11.04 17.76C11.04 17.43 11.04 17.1 11.04 16.78C11.04 16.57 11.09 16.5 11.3 16.44C11.88 16.27 12.44 16.05 12.97 15.75C13.16 15.64 13.25 15.66 13.41 15.81C13.64 16.04 13.87 16.27 14.11 16.51C14.28 16.68 14.43 16.68 14.59 16.51C15.23 15.87 15.87 15.23 16.51 14.59C16.67 14.43 16.67 14.28 16.51 14.12C16.28 13.88 16.04 13.65 15.8 13.41C15.65 13.26 15.64 13.16 15.74 12.99C16.04 12.46 16.27 11.89 16.44 11.31C16.5 11.11 16.57 11.06 16.78 11.06C17.09 11.06 17.39 11.06 17.7 11.06C18.03 11.06 18.11 10.98 18.11 10.66C18.11 9.8 18.11 8.94 18.11 8.08C18.11 7.74 18.03 7.67 17.69 7.67C17.39 7.67 17.09 7.67 16.79 7.67C16.57 7.67 16.5 7.62 16.44 7.41C16.27 6.83 16.05 6.27 15.75 5.74C15.64 5.55 15.66 5.46 15.82 5.3C16.06 5.06 16.29 4.83 16.53 4.59C16.68 4.44 16.68 4.28 16.53 4.13C15.89 3.48 15.24 2.84 14.6 2.2C14.44 2.04 14.29 2.04 14.13 2.2C13.89 2.43 13.66 2.67 13.42 2.91C13.27 3.05 13.17 3.07 13 2.97C12.47 2.67 11.91 2.44 11.32 2.27C11.15 2.22 11.07 2.12 11.07 1.94C11.07 1.61 11.07 1.27 11.07 0.94C11.07 0.7 10.97 0.6 10.73 0.6C10.28 0.6 9.82 0.6 9.37 0.6L9.35 0.58Z" fill="#383838"/>
<path d="M3.41039 9.3399C3.41039 6.0499 6.07039 3.3999 9.35039 3.3999C12.6304 3.3999 15.2904 6.0599 15.2904 9.3499C15.2904 12.6299 12.6304 15.2899 9.34039 15.2899C6.06039 15.2899 3.40039 12.6299 3.40039 9.3399H3.41039ZM5.96039 13.4699C5.96039 13.2499 5.96039 13.0399 5.96039 12.8399C5.97039 12.5799 5.98039 12.3199 6.03039 12.0699C6.31039 10.5999 7.54039 9.4999 9.05039 9.3499C10.5304 9.2099 11.9704 10.0899 12.5204 11.4799C12.6804 11.8799 12.7604 12.2999 12.7604 12.7399C12.7604 12.9799 12.7604 13.2299 12.7604 13.4899C14.3704 12.2199 15.2104 9.8799 14.4604 7.6399C13.7504 5.5099 11.6604 3.8199 9.00039 3.9799C6.82039 4.1199 4.81039 5.5999 4.17039 7.9399C3.56039 10.1699 4.50039 12.3699 5.96039 13.4799V13.4699ZM12.1704 13.1599C12.1704 12.9299 12.1704 12.6999 12.1704 12.4599C12.1704 12.3599 12.1504 12.2699 12.1304 12.1799C11.8004 10.6799 10.4604 9.7399 8.93039 9.9499C7.73039 10.1099 6.72039 11.1099 6.58039 12.3099C6.52039 12.8099 6.55039 13.3299 6.54039 13.8299C6.54039 13.8799 6.60039 13.9499 6.65039 13.9699C8.45039 14.9699 10.2504 14.9699 12.0604 13.9699C12.1504 13.9199 12.1904 13.8599 12.1804 13.7599C12.1804 13.5599 12.1804 13.3499 12.1804 13.1499L12.1704 13.1599Z" fill="#383838"/>
<path d="M9.33951 8.77998C8.37951 8.77998 7.63951 8.00998 7.64951 7.03998C7.64951 6.12998 8.43951 5.36998 9.35951 5.37998C10.2995 5.37998 11.0495 6.15998 11.0395 7.11998C11.0395 8.03998 10.2595 8.78998 9.33951 8.77998ZM8.22951 7.06998C8.22951 7.69998 8.71951 8.19998 9.34951 8.20998C9.96951 8.20998 10.4795 7.71998 10.4795 7.09998C10.4795 6.45998 9.97951 5.94998 9.34951 5.94998C8.72951 5.94998 8.22951 6.44998 8.22951 7.06998Z" fill="#383838"/>
</svg>
