<svg xmlns="http://www.w3.org/2000/svg" width="24.309" height="23.236" viewBox="0 0 24.309 23.236">
  <path id="Path_24" data-name="Path 24" d="M5.518,23.236V7.559H.307V23.236ZM2.913,5.417A2.717,2.717,0,1,0,2.948,0a2.716,2.716,0,1,0-.069,5.417h.034ZM8.4,23.236h5.211V14.481a3.572,3.572,0,0,1,.171-1.272A2.852,2.852,0,0,1,16.458,11.3c1.886,0,2.64,1.438,2.64,3.545v8.387h5.211V14.247c0-4.816-2.571-7.056-6-7.056a5.191,5.191,0,0,0-4.731,2.641h.035V7.558H8.4c.068,1.471,0,15.678,0,15.678Z" transform="translate(0 0)" fill="#fff"/>
</svg>
