<svg xmlns="http://www.w3.org/2000/svg" width="26.535" height="19.905" viewBox="0 0 26.535 19.905">
  <path id="Path_23" data-name="Path 23" d="M26.363,28.715a4.029,4.029,0,0,0-3.836-4.209c-2.872-.134-5.8-.186-8.793-.186H12.8c-2.986,0-5.919.052-8.791.187a4.038,4.038,0,0,0-3.83,4.219C.05,30.571-.005,32.416,0,34.261S.052,37.953.174,39.8A4.043,4.043,0,0,0,4,44.027c3.017.14,6.111.2,9.257.2q4.727.016,9.257-.2A4.043,4.043,0,0,0,26.355,39.8c.124-1.85.181-3.7.176-5.546q.018-2.768-.169-5.541ZM10.728,39.346V29.161l7.516,5.09Z" transform="translate(0.002 -24.32)" fill="#fff"/>
</svg>
